<svg width="65" height="65" viewBox="0 0 65 65" fill="none" xmlns="http://www.w3.org/2000/svg">
<path d="M44.7188 56.4375C51.1908 56.4375 56.4375 51.1908 56.4375 44.7188C56.4375 38.2467 51.1908 33 44.7188 33C38.2467 33 33 38.2467 33 44.7188C33 51.1908 38.2467 56.4375 44.7188 56.4375Z" fill="#5EDC89"/>
<path opacity="0.25" d="M44.7187 32.9997C42.9906 32.9912 41.2819 33.365 39.7151 34.0943C38.1483 34.8237 36.7623 35.8905 35.6562 37.2185C37.8777 35.1485 40.816 34.0215 43.8519 34.0751C46.8879 34.1287 49.7845 35.3586 51.9316 37.5056C54.0787 39.6527 55.3085 42.5494 55.3621 45.5853C55.4157 48.6213 54.2887 51.5595 52.2187 53.781C54.0921 52.2452 55.4435 50.1667 56.087 47.8314C56.7305 45.496 56.6345 43.0186 55.8122 40.7401C54.9898 38.4616 53.4816 36.4938 51.495 35.1077C49.5084 33.7216 47.1411 32.9851 44.7187 32.9997V32.9997Z" fill="white"/>
<path d="M44.7188 33C47.2553 32.9943 49.7242 33.8173 51.75 35.3438V17.375H9.5625V45.5H33.0781C33.0781 45.2656 33 44.9531 33 44.7188C33 41.6107 34.2347 38.63 36.4323 36.4323C38.63 34.2347 41.6107 33 44.7188 33V33Z" fill="#FFF4E3"/>
<path opacity="0.14" d="M28.3125 45.5H33.0781C33.0781 45.2656 33 44.9531 33 44.7188C32.9991 42.3514 33.7152 40.0394 35.054 38.087C36.3927 36.1346 38.2914 34.6335 40.5 33.7812H40.0313C36.9232 33.7812 33.9425 35.0159 31.7448 37.2136C29.5472 39.4113 28.3125 42.392 28.3125 45.5V45.5Z" fill="#000064"/>
<path opacity="0.14" d="M9.5625 17.375L30.6563 33.4688L51.75 17.375V18.5469L28.3125 39.25L9.5625 20.8906V17.375Z" fill="#000064"/>
<path d="M33 45.5H9.5625V17.375H51.75V35.3438" stroke="#2E4369" stroke-width="1.35804" stroke-miterlimit="10" stroke-linecap="round" stroke-linejoin="round"/>
<path d="M49.4063 42.375L43.1563 48.625L40.0313 45.5M9.5625 17.375L30.6563 33.4688L51.75 17.375H9.5625Z" stroke="#2E4369" stroke-width="1.35804" stroke-miterlimit="10" stroke-linecap="round" stroke-linejoin="round"/>
<path d="M44.7188 56.4375C51.1908 56.4375 56.4375 51.1908 56.4375 44.7188C56.4375 38.2467 51.1908 33 44.7188 33C38.2467 33 33 38.2467 33 44.7188C33 51.1908 38.2467 56.4375 44.7188 56.4375Z" fill="#5649CF" stroke="#2E4369" stroke-width="1.35804" stroke-miterlimit="10" stroke-linecap="round" stroke-linejoin="round"/>
</svg>
